<mxfile host="65bd71144e">
    <diagram id="Rhm131M39r4CrRXK1QyW" name="msd">
        <mxGraphModel dx="907" dy="667" grid="1" gridSize="10" guides="1" tooltips="1" connect="1" arrows="0" fold="1" page="0" pageScale="1" pageWidth="827" pageHeight="1169" math="0" shadow="1">
            <root>
                <mxCell id="0"/>
                <mxCell id="1" parent="0"/>
                <object label="&lt;font style=&quot;font-size: 11px;&quot;&gt;1/s&lt;/font&gt;" block="Integrator" initialcondition="0" type="block" name="" id="42">
                    <mxCell style="whiteSpace=wrap;html=1;aspect=fixed;fontSize=11;points=[[0,0.5,0,0,0],[1,0.5,0,0,0]];metaEdit=1;snapToPoint=0;resizable=0;rotatable=0;allowArrows=0;container=1;collapsible=0;movable=1;connectable=0;" parent="1" vertex="1">
                        <mxGeometry x="400" y="380" width="40" height="40" as="geometry"/>
                    </mxCell>
                </object>
                <object label="&lt;p style=&quot;line-height: 100%;&quot;&gt;&lt;br&gt;&lt;/p&gt;" type="outport" name="out" id="43">
                    <mxCell style="whiteSpace=wrap;html=1;aspect=fixed;snapToPoint=1;resizable=0;metaEdit=1;points=[[1,0.5,0,0,0]];editable=1;movable=0;rotatable=1;deletable=1;locked=0;connectable=1;noLabel=0;overflow=visible;fillColor=#000000;" parent="42" vertex="1">
                        <mxGeometry x="35" y="15" width="10" height="10" as="geometry"/>
                    </mxCell>
                </object>
                <object label="&lt;p style=&quot;line-height: 100%;&quot;&gt;&lt;br&gt;&lt;/p&gt;" type="inport" name="in" id="44">
                    <mxCell style="whiteSpace=wrap;html=1;aspect=fixed;snapToPoint=1;resizable=0;metaEdit=1;points=[[0,0.5,0,0,0]];editable=1;movable=0;rotatable=1;deletable=1;locked=0;connectable=1;noLabel=0;overflow=visible;direction=east;" parent="42" vertex="1">
                        <mxGeometry x="-5" y="15" width="10" height="10" as="geometry"/>
                    </mxCell>
                </object>
                <object label="&lt;font style=&quot;font-size: 11px;&quot;&gt;1/s&lt;/font&gt;" block="Integrator" initialcondition="M*g/k" type="block" name="" id="46">
                    <mxCell style="whiteSpace=wrap;html=1;aspect=fixed;fontSize=11;points=[[0,0.5,0,0,0],[1,0.5,0,0,0]];metaEdit=1;snapToPoint=0;resizable=0;rotatable=0;allowArrows=0;container=1;collapsible=0;movable=1;connectable=0;" parent="1" vertex="1">
                        <mxGeometry x="500" y="380" width="40" height="40" as="geometry"/>
                    </mxCell>
                </object>
                <object label="&lt;p style=&quot;line-height: 100%;&quot;&gt;&lt;br&gt;&lt;/p&gt;" type="outport" name="out" id="47">
                    <mxCell style="whiteSpace=wrap;html=1;aspect=fixed;snapToPoint=1;resizable=0;metaEdit=1;points=[[1,0.5,0,0,0]];editable=1;movable=0;rotatable=1;deletable=1;locked=0;connectable=1;noLabel=0;overflow=visible;fillColor=#000000;" parent="46" vertex="1">
                        <mxGeometry x="35" y="15" width="10" height="10" as="geometry"/>
                    </mxCell>
                </object>
                <object label="&lt;p style=&quot;line-height: 100%;&quot;&gt;&lt;br&gt;&lt;/p&gt;" type="inport" name="in" id="48">
                    <mxCell style="whiteSpace=wrap;html=1;aspect=fixed;snapToPoint=1;resizable=0;metaEdit=1;points=[[0,0.5,0,0,0]];editable=1;movable=0;rotatable=1;deletable=1;locked=0;connectable=1;noLabel=0;overflow=visible;direction=east;" parent="46" vertex="1">
                        <mxGeometry x="-5" y="15" width="10" height="10" as="geometry"/>
                    </mxCell>
                </object>
                <mxCell id="49" style="edgeStyle=orthogonalEdgeStyle;html=1;exitX=1;exitY=0.5;exitDx=0;exitDy=0;exitPerimeter=0;entryX=0;entryY=0.5;entryDx=0;entryDy=0;entryPerimeter=0;" parent="1" source="43" target="48" edge="1">
                    <mxGeometry relative="1" as="geometry"/>
                </mxCell>
                <object label="%name%" block="Inport" type="block" name="in" placeholders="1" id="63">
                    <mxCell style="ellipse;whiteSpace=wrap;html=1;fontSize=11;points=[[1,0.5,0,0,0]];metaEdit=1;snapToPoint=0;resizable=0;rotatable=0;allowArrows=0;container=1;collapsible=0;spacingTop=-5;movable=1;connectable=0;" vertex="1" parent="1">
                        <mxGeometry x="99.99999999999989" y="345" width="50" height="30" as="geometry"/>
                    </mxCell>
                </object>
                <object label="&lt;p style=&quot;line-height: 100%;&quot;&gt;&lt;br&gt;&lt;/p&gt;" type="outport" name="out" id="64">
                    <mxCell style="whiteSpace=wrap;html=1;aspect=fixed;snapToPoint=1;resizable=0;metaEdit=1;points=[[1,0.5,0,0,0]];editable=1;movable=0;rotatable=1;deletable=1;locked=0;connectable=1;noLabel=0;overflow=visible;fillColor=#000000;" vertex="1" parent="63">
                        <mxGeometry x="45" y="10" width="10" height="10" as="geometry"/>
                    </mxCell>
                </object>
                <object label="%value%" block="Constant" value="M*g" type="block" name="" placeholders="1" id="65">
                    <mxCell style="whiteSpace=wrap;html=1;fontSize=11;points=[[1,0.5,0,0,0]];metaEdit=1;snapToPoint=0;resizable=0;rotatable=0;allowArrows=0;container=1;resizeWidth=0;connectable=0;collapsible=0;movable=1;" vertex="1" parent="1">
                        <mxGeometry x="60" y="390" width="70" height="40" as="geometry"/>
                    </mxCell>
                </object>
                <object label="&lt;p style=&quot;line-height: 100%;&quot;&gt;&lt;br&gt;&lt;/p&gt;" type="outport" name="out" id="66">
                    <mxCell style="whiteSpace=wrap;html=1;aspect=fixed;snapToPoint=1;resizable=0;metaEdit=1;points=[[1,0.5,0,0,0]];editable=1;movable=0;rotatable=1;deletable=1;locked=0;connectable=1;noLabel=0;overflow=visible;fillColor=#000000;" vertex="1" parent="65">
                        <mxGeometry x="65.25" y="15" width="10" height="10" as="geometry"/>
                    </mxCell>
                </object>
                <object label="%K%" block="Gain" K="D" type="block" name="" placeholders="1" id="67">
                    <mxCell style="triangle;html=1;points=[[0,0.5,0,0,0],[1,0.5,0,0,0]];whiteSpace=wrap;fontSize=11;align=center;spacingLeft=-7;metaEdit=1;snapToPoint=0;allowArrows=0;resizable=0;rotatable=0;container=1;collapsible=0;movable=1;connectable=0;" vertex="1" parent="1">
                        <mxGeometry x="330" y="480" width="50" height="50" as="geometry"/>
                    </mxCell>
                </object>
                <object label="&lt;p style=&quot;line-height: 100%;&quot;&gt;&lt;br&gt;&lt;/p&gt;" type="inport" name="in" id="68">
                    <mxCell style="whiteSpace=wrap;html=1;aspect=fixed;snapToPoint=1;resizable=0;metaEdit=1;points=[[0,0.5,0,0,0]];editable=1;movable=0;rotatable=1;deletable=1;locked=0;connectable=1;noLabel=0;overflow=visible;direction=east;" vertex="1" parent="67">
                        <mxGeometry x="-5" y="20" width="10" height="10" as="geometry"/>
                    </mxCell>
                </object>
                <object label="&lt;p style=&quot;line-height: 100%;&quot;&gt;&lt;br&gt;&lt;/p&gt;" type="outport" name="out" id="69">
                    <mxCell style="whiteSpace=wrap;html=1;aspect=fixed;snapToPoint=1;resizable=0;metaEdit=1;points=[[1,0.5,0,0,0]];editable=1;movable=0;rotatable=1;deletable=1;locked=0;connectable=1;noLabel=0;overflow=visible;fillColor=#000000;" vertex="1" parent="67">
                        <mxGeometry x="45" y="20" width="10" height="10" as="geometry"/>
                    </mxCell>
                </object>
                <object label="%K%" block="Gain" K="k" type="block" name="" placeholders="1" id="70">
                    <mxCell style="triangle;html=1;points=[[0,0.5,0,0,0],[1,0.5,0,0,0]];whiteSpace=wrap;fontSize=11;align=center;spacingLeft=-7;metaEdit=1;snapToPoint=0;allowArrows=0;resizable=0;rotatable=0;container=1;collapsible=0;movable=1;connectable=0;" vertex="1" parent="1">
                        <mxGeometry x="250" y="650" width="50" height="50" as="geometry"/>
                    </mxCell>
                </object>
                <object label="&lt;p style=&quot;line-height: 100%;&quot;&gt;&lt;br&gt;&lt;/p&gt;" type="inport" name="in" id="71">
                    <mxCell style="whiteSpace=wrap;html=1;aspect=fixed;snapToPoint=1;resizable=0;metaEdit=1;points=[[0,0.5,0,0,0]];editable=1;movable=0;rotatable=1;deletable=1;locked=0;connectable=1;noLabel=0;overflow=visible;direction=east;" vertex="1" parent="70">
                        <mxGeometry x="-5" y="20" width="10" height="10" as="geometry"/>
                    </mxCell>
                </object>
                <object label="&lt;p style=&quot;line-height: 100%;&quot;&gt;&lt;br&gt;&lt;/p&gt;" type="outport" name="out" id="72">
                    <mxCell style="whiteSpace=wrap;html=1;aspect=fixed;snapToPoint=1;resizable=0;metaEdit=1;points=[[1,0.5,0,0,0]];editable=1;movable=0;rotatable=1;deletable=1;locked=0;connectable=1;noLabel=0;overflow=visible;fillColor=#000000;" vertex="1" parent="70">
                        <mxGeometry x="45" y="20" width="10" height="10" as="geometry"/>
                    </mxCell>
                </object>
                <object label="%K%" block="Gain" K="1/M" type="block" name="" placeholders="1" id="73">
                    <mxCell style="triangle;html=1;points=[[0,0.5,0,0,0],[1,0.5,0,0,0]];whiteSpace=wrap;fontSize=11;align=center;spacingLeft=-7;metaEdit=1;snapToPoint=0;allowArrows=0;resizable=0;rotatable=0;container=1;collapsible=0;movable=1;connectable=0;" vertex="1" parent="1">
                        <mxGeometry x="300" y="375" width="50" height="50" as="geometry"/>
                    </mxCell>
                </object>
                <object label="&lt;p style=&quot;line-height: 100%;&quot;&gt;&lt;br&gt;&lt;/p&gt;" type="inport" name="in" id="74">
                    <mxCell style="whiteSpace=wrap;html=1;aspect=fixed;snapToPoint=1;resizable=0;metaEdit=1;points=[[0,0.5,0,0,0]];editable=1;movable=0;rotatable=1;deletable=1;locked=0;connectable=1;noLabel=0;overflow=visible;direction=east;" vertex="1" parent="73">
                        <mxGeometry x="-5" y="20" width="10" height="10" as="geometry"/>
                    </mxCell>
                </object>
                <object label="&lt;p style=&quot;line-height: 100%;&quot;&gt;&lt;br&gt;&lt;/p&gt;" type="outport" name="out" id="75">
                    <mxCell style="whiteSpace=wrap;html=1;aspect=fixed;snapToPoint=1;resizable=0;metaEdit=1;points=[[1,0.5,0,0,0]];editable=1;movable=0;rotatable=1;deletable=1;locked=0;connectable=1;noLabel=0;overflow=visible;fillColor=#000000;" vertex="1" parent="73">
                        <mxGeometry x="45" y="20" width="10" height="10" as="geometry"/>
                    </mxCell>
                </object>
                <object label="%name%" block="Outport" type="block" name="out" placeholders="1" id="76">
                    <mxCell style="ellipse;whiteSpace=wrap;html=1;fontSize=11;points=[[0.02,0.5,0,0,0]];metaEdit=1;snapToPoint=0;resizable=0;rotatable=0;allowArrows=0;container=1;collapsible=0;spacingTop=-4;movable=1;connectable=0;" vertex="1" parent="1">
                        <mxGeometry x="590" y="385" width="50" height="30" as="geometry"/>
                    </mxCell>
                </object>
                <object label="&lt;p style=&quot;line-height: 100%;&quot;&gt;&lt;br&gt;&lt;/p&gt;" type="inport" name="in" id="77">
                    <mxCell style="whiteSpace=wrap;html=1;aspect=fixed;snapToPoint=1;resizable=0;metaEdit=1;points=[[0,0.5,0,0,0]];editable=1;movable=0;rotatable=1;deletable=1;locked=0;connectable=1;noLabel=0;overflow=visible;direction=east;" vertex="1" parent="76">
                        <mxGeometry x="-4" y="10" width="10" height="10" as="geometry"/>
                    </mxCell>
                </object>
                <object label="%signs%" block="Add" signs="&quot;++--&quot;" type="block" name="" placeholders="1" id="78">
                    <mxCell style="rounded=0;whiteSpace=wrap;html=1;fontSize=11;points=[[0,0.24,0,0,0],[0,0.76,0,0,0],[1,0.5,0,0,0]];metaEdit=1;snapToPoint=0;allowArrows=0;resizable=0;container=1;collapsible=0;movable=1;connectable=0;" vertex="1" parent="1">
                        <mxGeometry x="210" y="360" width="40" height="80" as="geometry"/>
                    </mxCell>
                </object>
                <object label="&lt;p style=&quot;line-height: 100%;&quot;&gt;&lt;br&gt;&lt;/p&gt;" type="outport" name="out" id="79">
                    <mxCell style="whiteSpace=wrap;html=1;aspect=fixed;snapToPoint=1;resizable=0;metaEdit=1;points=[[1,0.5,0,0,0]];editable=1;movable=0;rotatable=1;deletable=1;locked=0;connectable=1;noLabel=0;overflow=visible;fillColor=#000000;" vertex="1" parent="78">
                        <mxGeometry x="35" y="34.285714285714285" width="10" height="10" as="geometry"/>
                    </mxCell>
                </object>
                <object label="&lt;p style=&quot;line-height: 100%;&quot;&gt;&lt;br&gt;&lt;/p&gt;" type="inport" name="in1" id="80">
                    <mxCell style="whiteSpace=wrap;html=1;aspect=fixed;snapToPoint=1;resizable=0;metaEdit=1;points=[[0,0.5,0,0,0]];editable=1;movable=0;rotatable=1;deletable=1;locked=0;connectable=1;noLabel=0;overflow=visible;direction=east;" vertex="1" parent="78">
                        <mxGeometry x="-5" y="9" width="10" height="10" as="geometry"/>
                    </mxCell>
                </object>
                <object label="&lt;p style=&quot;line-height: 100%;&quot;&gt;&lt;br&gt;&lt;/p&gt;" type="inport" name="in2" id="81">
                    <mxCell style="whiteSpace=wrap;html=1;aspect=fixed;snapToPoint=1;resizable=0;metaEdit=1;points=[[0,0.5,0,0,0]];editable=1;movable=0;rotatable=1;deletable=1;locked=0;connectable=1;noLabel=0;overflow=visible;direction=east;" vertex="1" parent="78">
                        <mxGeometry x="-5" y="26" width="10" height="10" as="geometry"/>
                    </mxCell>
                </object>
                <object label="&lt;p style=&quot;line-height: 100%;&quot;&gt;&lt;br&gt;&lt;/p&gt;" type="inport" name="in3" id="82">
                    <mxCell style="whiteSpace=wrap;html=1;aspect=fixed;snapToPoint=1;resizable=0;metaEdit=1;points=[[0,0.5,0,0,0]];editable=1;movable=0;rotatable=1;deletable=1;locked=0;connectable=1;noLabel=0;overflow=visible;direction=east;" vertex="1" parent="78">
                        <mxGeometry x="-5" y="43" width="10" height="10" as="geometry"/>
                    </mxCell>
                </object>
                <object label="&lt;p style=&quot;line-height: 100%;&quot;&gt;&lt;br&gt;&lt;/p&gt;" type="inport" name="in4" id="83">
                    <mxCell style="whiteSpace=wrap;html=1;aspect=fixed;snapToPoint=1;resizable=0;metaEdit=1;points=[[0,0.5,0,0,0]];editable=1;movable=0;rotatable=1;deletable=1;locked=0;connectable=1;noLabel=0;overflow=visible;direction=east;" vertex="1" parent="78">
                        <mxGeometry x="-5" y="60" width="10" height="10" as="geometry"/>
                    </mxCell>
                </object>
                <mxCell id="84" style="edgeStyle=orthogonalEdgeStyle;html=1;exitX=1;exitY=0.5;exitDx=0;exitDy=0;exitPerimeter=0;entryX=0;entryY=0.5;entryDx=0;entryDy=0;entryPerimeter=0;" edge="1" parent="1" source="64" target="80">
                    <mxGeometry relative="1" as="geometry"/>
                </mxCell>
                <mxCell id="85" style="edgeStyle=orthogonalEdgeStyle;html=1;exitX=1;exitY=0.5;exitDx=0;exitDy=0;exitPerimeter=0;entryX=0;entryY=0.5;entryDx=0;entryDy=0;entryPerimeter=0;" edge="1" parent="1" source="66" target="81">
                    <mxGeometry relative="1" as="geometry"/>
                </mxCell>
                <mxCell id="86" style="edgeStyle=orthogonalEdgeStyle;html=1;exitX=1;exitY=0.5;exitDx=0;exitDy=0;exitPerimeter=0;entryX=0;entryY=0.5;entryDx=0;entryDy=0;entryPerimeter=0;" edge="1" parent="1" source="79" target="74">
                    <mxGeometry relative="1" as="geometry"/>
                </mxCell>
                <mxCell id="87" style="edgeStyle=orthogonalEdgeStyle;html=1;exitX=1;exitY=0.5;exitDx=0;exitDy=0;exitPerimeter=0;entryX=0;entryY=0.5;entryDx=0;entryDy=0;entryPerimeter=0;" edge="1" parent="1" source="75" target="44">
                    <mxGeometry relative="1" as="geometry"/>
                </mxCell>
                <mxCell id="88" style="edgeStyle=orthogonalEdgeStyle;html=1;exitX=1;exitY=0.5;exitDx=0;exitDy=0;exitPerimeter=0;entryX=0;entryY=0.5;entryDx=0;entryDy=0;entryPerimeter=0;" edge="1" parent="1" source="47" target="77">
                    <mxGeometry relative="1" as="geometry"/>
                </mxCell>
                <mxCell id="89" style="edgeStyle=orthogonalEdgeStyle;html=1;exitX=1;exitY=0.5;exitDx=0;exitDy=0;exitPerimeter=0;entryX=0;entryY=0.5;entryDx=0;entryDy=0;entryPerimeter=0;" edge="1" parent="1" source="47" target="68">
                    <mxGeometry relative="1" as="geometry"/>
                </mxCell>
                <mxCell id="90" style="edgeStyle=orthogonalEdgeStyle;html=1;exitX=1;exitY=0.5;exitDx=0;exitDy=0;exitPerimeter=0;entryX=0;entryY=0.5;entryDx=0;entryDy=0;entryPerimeter=0;" edge="1" parent="1" source="43" target="71">
                    <mxGeometry relative="1" as="geometry"/>
                </mxCell>
                <mxCell id="91" style="edgeStyle=orthogonalEdgeStyle;html=1;exitX=1;exitY=0.5;exitDx=0;exitDy=0;exitPerimeter=0;entryX=0;entryY=0.5;entryDx=0;entryDy=0;entryPerimeter=0;" edge="1" parent="1" source="69" target="82">
                    <mxGeometry relative="1" as="geometry"/>
                </mxCell>
                <mxCell id="92" style="edgeStyle=orthogonalEdgeStyle;html=1;exitX=1;exitY=0.5;exitDx=0;exitDy=0;exitPerimeter=0;entryX=0;entryY=0.5;entryDx=0;entryDy=0;entryPerimeter=0;" edge="1" parent="1" source="72" target="83">
                    <mxGeometry relative="1" as="geometry"/>
                </mxCell>
            </root>
        </mxGraphModel>
    </diagram>
    <diagram id="CZswKpPi_MBNXcvH8zC7" name="testmodel">
        <mxGraphModel dx="907" dy="667" grid="1" gridSize="10" guides="1" tooltips="1" connect="1" arrows="1" fold="1" page="1" pageScale="1" pageWidth="827" pageHeight="1169" math="0" shadow="0">
            <root>
                <mxCell id="0"/>
                <mxCell id="1" parent="0"/>
                <object label="%block%" block="MSD" type="block" name="msd" placeholders="1" M="M" D="D" k="k" id="S0-hgQaqpSkl1TX0nI0X-1">
                    <mxCell style="rounded=0;whiteSpace=wrap;html=1;fontSize=11;points=[[0,0.5,0,0,0],[1,0.5,0,0,0]];metaEdit=1;snapToPoint=0;resizable=1;rotatable=0;allowArrows=0;container=1;resizeHeight=0;connectable=0;collapsible=0;movable=1;" parent="1" vertex="1">
                        <mxGeometry x="370" y="170" width="90" height="60" as="geometry"/>
                    </mxCell>
                </object>
                <object label="&lt;p style=&quot;line-height: 100%;&quot;&gt;&lt;br&gt;&lt;/p&gt;" type="inport" name="in" id="S0-hgQaqpSkl1TX0nI0X-2">
                    <mxCell style="whiteSpace=wrap;html=1;aspect=fixed;snapToPoint=1;resizable=0;metaEdit=1;points=[[0,0.5,0,0,0]];editable=1;movable=1;rotatable=1;deletable=1;locked=0;connectable=1;noLabel=0;overflow=visible;direction=east;" parent="S0-hgQaqpSkl1TX0nI0X-1" vertex="1">
                        <mxGeometry x="-5.42857142857143" y="25" width="10" height="10" as="geometry"/>
                    </mxCell>
                </object>
                <object label="&lt;p style=&quot;line-height: 100%;&quot;&gt;&lt;br&gt;&lt;/p&gt;" type="outport" name="out" id="S0-hgQaqpSkl1TX0nI0X-3">
                    <mxCell style="whiteSpace=wrap;html=1;aspect=fixed;snapToPoint=1;resizable=0;metaEdit=1;points=[[1,0.5,0,0,0]];editable=1;movable=1;rotatable=1;deletable=1;locked=0;connectable=1;noLabel=0;overflow=visible;fillColor=#000000;" parent="S0-hgQaqpSkl1TX0nI0X-1" vertex="1">
                        <mxGeometry x="84.57142857142858" y="25" width="10" height="10" as="geometry"/>
                    </mxCell>
                </object>
                <object label="&lt;font style=&quot;font-size: 11px;&quot;&gt;Pulse&lt;br&gt;Generator&lt;/font&gt;" block="PulseGenerator" amplitude="f" period="p_cycle" pulsewidth="p_width" phasedelay="10" type="block" name="" id="S0-hgQaqpSkl1TX0nI0X-4">
                    <mxCell style="whiteSpace=wrap;html=1;fontSize=11;points=[[1,0.5,0,0,0]];metaEdit=1;snapToPoint=1;resizable=0;rotatable=0;allowArrows=0;container=1;collapsible=0;movable=1;connectable=0;" parent="1" vertex="1">
                        <mxGeometry x="180" y="180" width="70" height="40" as="geometry"/>
                    </mxCell>
                </object>
                <object label="&lt;p style=&quot;line-height: 100%;&quot;&gt;&lt;br&gt;&lt;/p&gt;" type="outport" name="out" id="S0-hgQaqpSkl1TX0nI0X-5">
                    <mxCell style="whiteSpace=wrap;html=1;aspect=fixed;snapToPoint=1;resizable=0;metaEdit=1;points=[[1,0.5,0,0,0]];editable=1;movable=0;rotatable=1;deletable=1;locked=0;connectable=1;noLabel=0;overflow=visible;fillColor=#000000;" parent="S0-hgQaqpSkl1TX0nI0X-4" vertex="1">
                        <mxGeometry x="65" y="15" width="10" height="10" as="geometry"/>
                    </mxCell>
                </object>
                <mxCell id="S0-hgQaqpSkl1TX0nI0X-6" style="edgeStyle=none;html=1;exitX=1;exitY=0.5;exitDx=0;exitDy=0;exitPerimeter=0;entryX=0;entryY=0.5;entryDx=0;entryDy=0;entryPerimeter=0;" parent="1" source="S0-hgQaqpSkl1TX0nI0X-5" target="S0-hgQaqpSkl1TX0nI0X-2" edge="1">
                    <mxGeometry relative="1" as="geometry"/>
                </mxCell>
            </root>
        </mxGraphModel>
    </diagram>
</mxfile>